<?xml version="1.0" encoding="UTF-8" standalone="no"?>
<!-- Created with Sodipodi ("http://www.sodipodi.com/") -->
<svg
   xmlns:dc="http://purl.org/dc/elements/1.1/"
   xmlns:cc="http://web.resource.org/cc/"
   xmlns:rdf="http://www.w3.org/1999/02/22-rdf-syntax-ns#"
   xmlns:svg="http://www.w3.org/2000/svg"
   xmlns="http://www.w3.org/2000/svg"
   xmlns:xlink="http://www.w3.org/1999/xlink"
   xmlns:sodipodi="http://sodipodi.sourceforge.net/DTD/sodipodi-0.dtd"
   xmlns:inkscape="http://www.inkscape.org/namespaces/inkscape"
   width="48pt"
   height="48pt"
   viewBox="0 0 256 256"
   style="overflow:visible;enable-background:new 0 0 256 256"
   xml:space="preserve"
   id="svg548"
   sodipodi:version="0.32"
   sodipodi:docname="playafter.svg"
   sodipodi:docbase="/home/crawford/workspace/Extrackt/src/extrackt/resources"
   inkscape:version="0.44.1"
   inkscape:export-filename="/home/crawford/workspace/Extrackt/src/extrackt/resources/playbefore.png"
   inkscape:export-xdpi="24"
   inkscape:export-ydpi="24"><metadata
   id="metadata3284"><rdf:RDF><cc:Work
       rdf:about=""><dc:format>image/svg+xml</dc:format><dc:type
         rdf:resource="http://purl.org/dc/dcmitype/StillImage" /></cc:Work></rdf:RDF></metadata>
  <defs
   id="defs590">
    
    
    
    
    <linearGradient
   y2="107.2388"
   x2="88.4868"
   y1="8.7085"
   x1="88.4868"
   gradientUnits="userSpaceOnUse"
   id="XMLID_1_">
      <stop
   id="stop557"
   style="stop-color:#FFFFFF"
   offset="0" />
      <stop
   id="stop558"
   style="stop-color:#3399FF"
   offset="1" />
      
      
      
    </linearGradient>
    
    <linearGradient
   y2="145.2493"
   x2="88.4878"
   y1="264.875"
   x1="88.4878"
   gradientUnits="userSpaceOnUse"
   id="XMLID_2_">
      <stop
   id="stop564"
   style="stop-color:#CCFFFF"
   offset="0" />
      <stop
   id="stop565"
   style="stop-color:#3399FF"
   offset="1" />
      
      
      
    </linearGradient>
    
    
  
    
    
    
    <linearGradient
   y2="162.6429"
   x2="234.166"
   y1="253.1816"
   x1="234.166"
   gradientUnits="userSpaceOnUse"
   id="XMLID_3_">
      <stop
   id="stop576"
   style="stop-color:#CCFFFF"
   offset="0" />
      <stop
   id="stop577"
   style="stop-color:#3399FF"
   offset="1" />
      
      
      
    </linearGradient>
    
    <linearGradient
   y2="80.5158"
   x2="234.166"
   y1="7.439"
   x1="234.166"
   gradientUnits="userSpaceOnUse"
   id="XMLID_4_"
   gradientTransform="translate(-219.333,-3.679165e-7)">
      <stop
   id="stop583"
   style="stop-color:#FFFFFF"
   offset="0" />
      <stop
   id="stop584"
   style="stop-color:#3399FF"
   offset="1" />
      
      
      
    </linearGradient>
    
  <linearGradient
   inkscape:collect="always"
   xlink:href="#XMLID_3_"
   id="linearGradient6916"
   gradientUnits="userSpaceOnUse"
   x1="234.166"
   y1="253.1816"
   x2="234.166"
   y2="162.6429" /><linearGradient
   inkscape:collect="always"
   xlink:href="#XMLID_3_"
   id="linearGradient6922"
   gradientUnits="userSpaceOnUse"
   x1="234.166"
   y1="253.1816"
   x2="234.166"
   y2="162.6429"
   gradientTransform="translate(-101.2678,86.17199)" /></defs>
  <sodipodi:namedview
   id="base"
   inkscape:zoom="6.7833333"
   inkscape:cx="30"
   inkscape:cy="18.138477"
   inkscape:window-width="1270"
   inkscape:window-height="945"
   inkscape:window-x="0"
   inkscape:window-y="25"
   inkscape:current-layer="svg548" />
  <g
   id="Layer_1"
   style="stroke:black"
   transform="translate(7.547912,-0.628993)">
    <path
   style="fill:none;stroke:none"
   d="M 256,256 L 0,256 L 0,0 L 256,0 L 256,256 z "
   id="path550" />
  </g>
  
  <path
   id="path572"
   d="M 36.667,248.219 C 36.667,252.516 33.085,256 28.667,256 L 15,256 C 10.582,256 7,252.516 7,248.219 L 7,14.782 C 7,10.484 10.582,7.001 15,7.001 L 28.667,7.001 C 33.085,7.001 36.667,10.484 36.667,14.782 L 36.667,248.219 z "
   style="opacity:0.2;stroke:none" /><path
   id="path573"
   d="M 29.667,241.218 C 29.667,245.515 26.085,248.999 21.667,248.999 L 8,248.999 C 3.582,248.999 0,245.515 0,241.218 L 0,7.781 C 0,3.483 3.582,2.0835315e-09 8,2.0835315e-09 L 21.667,2.0835315e-09 C 26.085,2.0835315e-09 29.667,3.483 29.667,7.781 L 29.667,241.218 z "
   style="fill:#039;stroke:none" /><path
   id="path574"
   d="M 10,9.701 C 10,13.484 10,234.849 10,238.633 C 12.415,238.633 17.252,238.633 19.667,238.633 C 19.667,234.849 19.667,13.484 19.667,9.701 C 17.252,9.701 12.415,9.701 10,9.701 z "
   style="fill:#39f;stroke:none" /><path
   id="path588"
   d="M 10,94.048 C 10.444,94.066 10.887,94.094 11.334,94.094 C 14.185,94.094 16.968,93.706 19.667,92.991 C 19.667,48.756 19.667,11.238 19.667,9.7 C 17.252,9.7 12.415,9.7 10,9.7 C 10,11.251 10,49.356 10,94.048 z "
   style="fill:url(#XMLID_4_);stroke:none" />
<g
   id="g6924"
   transform="translate(49.69041,-128.9436)"><path
     transform="translate(-17.6881,204.5436)"
     sodipodi:open="true"
     sodipodi:end="10.722174"
     sodipodi:start="4.5393304"
     d="M 47.224125,92.180556 A 28.933661,23.272728 0 1 1 44.394096,92.697311"
     sodipodi:ry="23.272728"
     sodipodi:rx="28.933661"
     sodipodi:cy="115.10565"
     sodipodi:cx="52.206387"
     id="path3300"
     style="fill:black;fill-opacity:1;fill-rule:nonzero;stroke:black;stroke-width:3.54330707;stroke-linecap:round;stroke-linejoin:round;stroke-miterlimit:4;stroke-dasharray:none;stroke-opacity:1"
     sodipodi:type="arc" /><path
     transform="translate(77.2932,161.1431)"
     sodipodi:open="true"
     sodipodi:end="10.722174"
     sodipodi:start="4.5393304"
     d="M 47.224125,92.180556 A 28.933661,23.272728 0 1 1 44.394096,92.697311"
     sodipodi:ry="23.272728"
     sodipodi:rx="28.933661"
     sodipodi:cy="115.10565"
     sodipodi:cx="52.206387"
     id="path4187"
     style="fill:black;fill-opacity:1;fill-rule:nonzero;stroke:black;stroke-width:3.54330707;stroke-linecap:round;stroke-linejoin:round;stroke-miterlimit:4;stroke-dasharray:none;stroke-opacity:1;overflow:visible"
     sodipodi:type="arc" /><path
     sodipodi:nodetypes="ccccccccc"
     id="path5987"
     d="M 52.75908,322.47973 C 53.38807,318.07679 52.75908,191.02028 52.75908,191.02028 L 159.68783,147.93428 L 159.68783,277.19226 L 148.68046,277.50677 L 149.93845,175.77567 L 64.70994,210.00181 L 64.70994,322.16524 L 52.75908,322.47973 z "
     style="fill:black;fill-opacity:1;fill-rule:evenodd;stroke:black;stroke-width:1px;stroke-linecap:butt;stroke-linejoin:miter;stroke-opacity:1" /></g><g
   style="opacity:0.2;overflow:visible"
   id="g6929"
   transform="translate(58.25986,-119.6382)"><path
     transform="translate(-17.6881,204.5436)"
     sodipodi:open="true"
     sodipodi:end="10.722174"
     sodipodi:start="4.5393304"
     d="M 47.224125,92.180556 A 28.933661,23.272728 0 1 1 44.394096,92.697311"
     sodipodi:ry="23.272728"
     sodipodi:rx="28.933661"
     sodipodi:cy="115.10565"
     sodipodi:cx="52.206387"
     id="path6931"
     style="fill:black;fill-opacity:1;fill-rule:nonzero;stroke:black;stroke-width:3.54330707;stroke-linecap:round;stroke-linejoin:round;stroke-miterlimit:4;stroke-dasharray:none;stroke-opacity:1"
     sodipodi:type="arc" /><path
     transform="translate(77.2932,161.1431)"
     sodipodi:open="true"
     sodipodi:end="10.722174"
     sodipodi:start="4.5393304"
     d="M 47.224125,92.180556 A 28.933661,23.272728 0 1 1 44.394096,92.697311"
     sodipodi:ry="23.272728"
     sodipodi:rx="28.933661"
     sodipodi:cy="115.10565"
     sodipodi:cx="52.206387"
     id="path6933"
     style="fill:black;fill-opacity:1;fill-rule:nonzero;stroke:black;stroke-width:3.54330707;stroke-linecap:round;stroke-linejoin:round;stroke-miterlimit:4;stroke-dasharray:none;stroke-opacity:1;overflow:visible"
     sodipodi:type="arc" /><path
     sodipodi:nodetypes="ccccccccc"
     id="path6935"
     d="M 52.75908,322.47973 C 53.38807,318.07679 52.75908,191.02028 52.75908,191.02028 L 159.68783,147.93428 L 159.68783,277.19226 L 148.68046,277.50677 L 149.93845,175.77567 L 64.70994,210.00181 L 64.70994,322.16524 L 52.75908,322.47973 z "
     style="fill:black;fill-opacity:1;fill-rule:evenodd;stroke:black;stroke-width:1px;stroke-linecap:butt;stroke-linejoin:miter;stroke-opacity:1" /></g></svg>