<?xml version="1.0" encoding="UTF-8" standalone="no"?>
<!-- Created with Sodipodi ("http://www.sodipodi.com/") -->
<svg
   xmlns:dc="http://purl.org/dc/elements/1.1/"
   xmlns:cc="http://web.resource.org/cc/"
   xmlns:rdf="http://www.w3.org/1999/02/22-rdf-syntax-ns#"
   xmlns:svg="http://www.w3.org/2000/svg"
   xmlns="http://www.w3.org/2000/svg"
   xmlns:xlink="http://www.w3.org/1999/xlink"
   xmlns:sodipodi="http://sodipodi.sourceforge.net/DTD/sodipodi-0.dtd"
   xmlns:inkscape="http://www.inkscape.org/namespaces/inkscape"
   width="48pt"
   height="48pt"
   viewBox="0 0 256 256"
   style="overflow:visible;enable-background:new 0 0 256 256"
   xml:space="preserve"
   id="svg548"
   sodipodi:version="0.32"
   sodipodi:docname="playbefore.svg"
   sodipodi:docbase="/home/crawford/workspace/Extrackt/src/extrackt/resources"
   inkscape:version="0.44.1"
   inkscape:export-filename="/home/crawford/workspace/Extrackt/src/extrackt/resources/playbefore.png"
   inkscape:export-xdpi="24"
   inkscape:export-ydpi="24"><metadata
   id="metadata3284"><rdf:RDF><cc:Work
       rdf:about=""><dc:format>image/svg+xml</dc:format><dc:type
         rdf:resource="http://purl.org/dc/dcmitype/StillImage" /></cc:Work></rdf:RDF></metadata>
  <defs
   id="defs590">
    
    
    
    
    <linearGradient
   y2="107.2388"
   x2="88.4868"
   y1="8.7085"
   x1="88.4868"
   gradientUnits="userSpaceOnUse"
   id="XMLID_1_">
      <stop
   id="stop557"
   style="stop-color:#FFFFFF"
   offset="0" />
      <stop
   id="stop558"
   style="stop-color:#3399FF"
   offset="1" />
      
      
      
    </linearGradient>
    
    <linearGradient
   y2="145.2493"
   x2="88.4878"
   y1="264.875"
   x1="88.4878"
   gradientUnits="userSpaceOnUse"
   id="XMLID_2_">
      <stop
   id="stop564"
   style="stop-color:#CCFFFF"
   offset="0" />
      <stop
   id="stop565"
   style="stop-color:#3399FF"
   offset="1" />
      
      
      
    </linearGradient>
    
    
  
    
    
    
    <linearGradient
   y2="162.6429"
   x2="234.166"
   y1="253.1816"
   x1="234.166"
   gradientUnits="userSpaceOnUse"
   id="XMLID_3_">
      <stop
   id="stop576"
   style="stop-color:#CCFFFF"
   offset="0" />
      <stop
   id="stop577"
   style="stop-color:#3399FF"
   offset="1" />
      
      
      
    </linearGradient>
    
    <linearGradient
   y2="80.5158"
   x2="234.166"
   y1="7.439"
   x1="234.166"
   gradientUnits="userSpaceOnUse"
   id="XMLID_4_">
      <stop
   id="stop583"
   style="stop-color:#FFFFFF"
   offset="0" />
      <stop
   id="stop584"
   style="stop-color:#3399FF"
   offset="1" />
      
      
      
    </linearGradient>
    
  <linearGradient
   inkscape:collect="always"
   xlink:href="#XMLID_3_"
   id="linearGradient6916"
   gradientUnits="userSpaceOnUse"
   x1="234.166"
   y1="253.1816"
   x2="234.166"
   y2="162.6429" /><linearGradient
   inkscape:collect="always"
   xlink:href="#XMLID_3_"
   id="linearGradient6922"
   gradientUnits="userSpaceOnUse"
   x1="234.166"
   y1="253.1816"
   x2="234.166"
   y2="162.6429"
   gradientTransform="translate(-101.2678,86.17199)" /></defs>
  <sodipodi:namedview
   id="base"
   inkscape:zoom="6.7833333"
   inkscape:cx="30"
   inkscape:cy="18.138477"
   inkscape:window-width="1280"
   inkscape:window-height="949"
   inkscape:window-x="0"
   inkscape:window-y="25"
   inkscape:current-layer="svg548" />
  <g
   id="Layer_1"
   style="stroke:#000000;">
    <path
   style="fill:none;stroke:none;"
   d="M256,256H0V0h256V256z"
   id="path550" />
  </g>
  
  <path
   id="path572"
   d="M 256,248.219 C 256,252.516 252.418,256 248,256 L 234.333,256 C 229.915,256 226.333,252.516 226.333,248.219 L 226.333,14.782 C 226.333,10.484 229.915,7.001 234.333,7.001 L 248,7.001 C 252.418,7.001 256,10.484 256,14.782 L 256,248.219 z "
   style="opacity:0.2;stroke:none" /><path
   id="path573"
   d="M 249,241.218 C 249,245.515 245.418,248.999 241,248.999 L 227.333,248.999 C 222.915,248.999 219.333,245.515 219.333,241.218 L 219.333,7.781 C 219.333,3.483 222.915,0 227.333,0 L 241,0 C 245.418,0 249,3.483 249,7.781 L 249,241.218 z "
   style="fill:#039;stroke:none" /><path
   id="path574"
   d="M 229.333,9.701 C 229.333,13.484 229.333,234.849 229.333,238.633 C 231.748,238.633 236.585,238.633 239,238.633 C 239,234.849 239,13.484 239,9.701 C 236.585,9.701 231.748,9.701 229.333,9.701 z "
   style="fill:#39f;stroke:none" /><path
   id="path588"
   d="M 229.333,94.048 C 229.777,94.066 230.22,94.094 230.667,94.094 C 233.518,94.094 236.301,93.706 239,92.991 C 239,48.756 239,11.238 239,9.7 C 236.585,9.7 231.748,9.7 229.333,9.7 C 229.333,11.251 229.333,49.356 229.333,94.048 z "
   style="fill:url(#XMLID_4_);stroke:none" />
<g
   id="g6924"
   transform="translate(15.72481,-125.1696)"><path
     transform="translate(-17.6881,204.5436)"
     sodipodi:open="true"
     sodipodi:end="10.722174"
     sodipodi:start="4.5393304"
     d="M 47.224125,92.180556 A 28.933661,23.272728 0 1 1 44.394096,92.697311"
     sodipodi:ry="23.272728"
     sodipodi:rx="28.933661"
     sodipodi:cy="115.10565"
     sodipodi:cx="52.206387"
     id="path3300"
     style="fill:black;fill-opacity:1;fill-rule:nonzero;stroke:black;stroke-width:3.54330707;stroke-linecap:round;stroke-linejoin:round;stroke-miterlimit:4;stroke-dasharray:none;stroke-opacity:1"
     sodipodi:type="arc" /><path
     transform="translate(77.2932,161.1431)"
     sodipodi:open="true"
     sodipodi:end="10.722174"
     sodipodi:start="4.5393304"
     d="M 47.224125,92.180556 A 28.933661,23.272728 0 1 1 44.394096,92.697311"
     sodipodi:ry="23.272728"
     sodipodi:rx="28.933661"
     sodipodi:cy="115.10565"
     sodipodi:cx="52.206387"
     id="path4187"
     style="fill:black;fill-opacity:1;fill-rule:nonzero;stroke:black;stroke-width:3.54330707;stroke-linecap:round;stroke-linejoin:round;stroke-miterlimit:4;stroke-dasharray:none;stroke-opacity:1;overflow:visible"
     sodipodi:type="arc" /><path
     sodipodi:nodetypes="ccccccccc"
     id="path5987"
     d="M 52.75908,322.47973 C 53.38807,318.07679 52.75908,191.02028 52.75908,191.02028 L 159.68783,147.93428 L 159.68783,277.19226 L 148.68046,277.50677 L 149.93845,175.77567 L 64.70994,210.00181 L 64.70994,322.16524 L 52.75908,322.47973 z "
     style="fill:black;fill-opacity:1;fill-rule:evenodd;stroke:black;stroke-width:1px;stroke-linecap:butt;stroke-linejoin:miter;stroke-opacity:1" /></g><g
   style="opacity:0.2;overflow:visible"
   id="g6929"
   transform="translate(24.29426,-115.8642)"><path
     transform="translate(-17.6881,204.5436)"
     sodipodi:open="true"
     sodipodi:end="10.722174"
     sodipodi:start="4.5393304"
     d="M 47.224125,92.180556 A 28.933661,23.272728 0 1 1 44.394096,92.697311"
     sodipodi:ry="23.272728"
     sodipodi:rx="28.933661"
     sodipodi:cy="115.10565"
     sodipodi:cx="52.206387"
     id="path6931"
     style="fill:black;fill-opacity:1;fill-rule:nonzero;stroke:black;stroke-width:3.54330707;stroke-linecap:round;stroke-linejoin:round;stroke-miterlimit:4;stroke-dasharray:none;stroke-opacity:1"
     sodipodi:type="arc" /><path
     transform="translate(77.2932,161.1431)"
     sodipodi:open="true"
     sodipodi:end="10.722174"
     sodipodi:start="4.5393304"
     d="M 47.224125,92.180556 A 28.933661,23.272728 0 1 1 44.394096,92.697311"
     sodipodi:ry="23.272728"
     sodipodi:rx="28.933661"
     sodipodi:cy="115.10565"
     sodipodi:cx="52.206387"
     id="path6933"
     style="fill:black;fill-opacity:1;fill-rule:nonzero;stroke:black;stroke-width:3.54330707;stroke-linecap:round;stroke-linejoin:round;stroke-miterlimit:4;stroke-dasharray:none;stroke-opacity:1;overflow:visible"
     sodipodi:type="arc" /><path
     sodipodi:nodetypes="ccccccccc"
     id="path6935"
     d="M 52.75908,322.47973 C 53.38807,318.07679 52.75908,191.02028 52.75908,191.02028 L 159.68783,147.93428 L 159.68783,277.19226 L 148.68046,277.50677 L 149.93845,175.77567 L 64.70994,210.00181 L 64.70994,322.16524 L 52.75908,322.47973 z "
     style="fill:black;fill-opacity:1;fill-rule:evenodd;stroke:black;stroke-width:1px;stroke-linecap:butt;stroke-linejoin:miter;stroke-opacity:1" /></g></svg>